<mxfile host="65bd71144e">
    <diagram id="pA5UOVz8Hq5Gwbrj3o91" name="Page-1">
        <mxGraphModel dx="1683" dy="1090" grid="0" gridSize="10" guides="1" tooltips="1" connect="1" arrows="1" fold="1" page="1" pageScale="1" pageWidth="827" pageHeight="1169" math="0" shadow="0">
            <root>
                <mxCell id="0"/>
                <mxCell id="1" parent="0"/>
                <mxCell id="2" value="VM" style="rounded=1;whiteSpace=wrap;html=1;" parent="1" vertex="1">
                    <mxGeometry x="169" y="331" width="120" height="60" as="geometry"/>
                </mxCell>
                <mxCell id="5" value="POD" style="shape=cylinder3;whiteSpace=wrap;html=1;boundedLbl=1;backgroundOutline=1;size=15;" parent="1" vertex="1">
                    <mxGeometry x="199" y="221" width="60" height="80" as="geometry"/>
                </mxCell>
                <mxCell id="6" value="VM" style="rounded=1;whiteSpace=wrap;html=1;" parent="1" vertex="1">
                    <mxGeometry x="329" y="331" width="120" height="60" as="geometry"/>
                </mxCell>
                <mxCell id="7" value="VM" style="rounded=1;whiteSpace=wrap;html=1;" parent="1" vertex="1">
                    <mxGeometry x="489" y="331" width="120" height="60" as="geometry"/>
                </mxCell>
                <mxCell id="8" value="Load Balance" style="rounded=0;whiteSpace=wrap;html=1;" parent="1" vertex="1">
                    <mxGeometry x="329" y="516" width="120" height="60" as="geometry"/>
                </mxCell>
                <mxCell id="9" value="POD" style="shape=cylinder3;whiteSpace=wrap;html=1;boundedLbl=1;backgroundOutline=1;size=15;" parent="1" vertex="1">
                    <mxGeometry x="359" y="221" width="60" height="80" as="geometry"/>
                </mxCell>
                <mxCell id="10" value="POD" style="shape=cylinder3;whiteSpace=wrap;html=1;boundedLbl=1;backgroundOutline=1;size=15;" parent="1" vertex="1">
                    <mxGeometry x="519" y="221" width="60" height="80" as="geometry"/>
                </mxCell>
                <mxCell id="13" value="port: 20000" style="rounded=0;whiteSpace=wrap;html=1;" parent="1" vertex="1">
                    <mxGeometry x="529" y="391" width="40" height="30" as="geometry"/>
                </mxCell>
                <mxCell id="14" value="port: 20000" style="rounded=0;whiteSpace=wrap;html=1;" parent="1" vertex="1">
                    <mxGeometry x="369" y="391" width="40" height="30" as="geometry"/>
                </mxCell>
                <mxCell id="15" value="port: 20000" style="rounded=0;whiteSpace=wrap;html=1;" parent="1" vertex="1">
                    <mxGeometry x="209" y="391" width="40" height="30" as="geometry"/>
                </mxCell>
                <mxCell id="16" value="" style="endArrow=classic;html=1;entryX=0.25;entryY=1;entryDx=0;entryDy=0;" parent="1" target="15" edge="1">
                    <mxGeometry width="50" height="50" relative="1" as="geometry">
                        <mxPoint x="389" y="511" as="sourcePoint"/>
                        <mxPoint x="229" y="441" as="targetPoint"/>
                    </mxGeometry>
                </mxCell>
                <mxCell id="17" value="" style="endArrow=classic;html=1;entryX=0.5;entryY=1;entryDx=0;entryDy=0;" parent="1" target="14" edge="1">
                    <mxGeometry width="50" height="50" relative="1" as="geometry">
                        <mxPoint x="389" y="511" as="sourcePoint"/>
                        <mxPoint x="389" y="441" as="targetPoint"/>
                    </mxGeometry>
                </mxCell>
                <mxCell id="18" value="" style="endArrow=classic;html=1;entryX=0.5;entryY=1;entryDx=0;entryDy=0;" parent="1" target="13" edge="1">
                    <mxGeometry width="50" height="50" relative="1" as="geometry">
                        <mxPoint x="389" y="511" as="sourcePoint"/>
                        <mxPoint x="439" y="461" as="targetPoint"/>
                    </mxGeometry>
                </mxCell>
                <mxCell id="19" value="" style="shape=flexArrow;endArrow=classic;html=1;" parent="1" edge="1">
                    <mxGeometry width="50" height="50" relative="1" as="geometry">
                        <mxPoint x="388.5" y="711" as="sourcePoint"/>
                        <mxPoint x="388.5" y="581" as="targetPoint"/>
                    </mxGeometry>
                </mxCell>
                <mxCell id="20" value="Traffic" style="text;html=1;strokeColor=none;fillColor=none;align=center;verticalAlign=middle;whiteSpace=wrap;rounded=0;" parent="1" vertex="1">
                    <mxGeometry x="409" y="631" width="60" height="30" as="geometry"/>
                </mxCell>
            </root>
        </mxGraphModel>
    </diagram>
</mxfile>